<mxfile host="app.diagrams.net" agent="Mozilla/5.0 (Windows NT 10.0; Win64; x64) AppleWebKit/537.36 (KHTML, like Gecko) Chrome/131.0.0.0 Safari/537.36" version="25.0.1">
  <diagram name="Page-1" id="lbOhIKWhwcdPpRNCW4DW">
    <mxGraphModel dx="652" dy="316" grid="1" gridSize="10" guides="1" tooltips="1" connect="1" arrows="1" fold="1" page="1" pageScale="1" pageWidth="850" pageHeight="1100" math="0" shadow="0">
      <root>
        <mxCell id="0" />
        <mxCell id="1" parent="0" />
        <mxCell id="3jeVtCWE8oX8Z17kRic9-1" value="User&lt;div&gt;Management&lt;/div&gt;" style="html=1;dropTarget=0;whiteSpace=wrap;" parent="1" vertex="1">
          <mxGeometry x="50" y="180" width="180" height="90" as="geometry" />
        </mxCell>
        <mxCell id="3jeVtCWE8oX8Z17kRic9-2" value="" style="shape=module;jettyWidth=8;jettyHeight=4;" parent="3jeVtCWE8oX8Z17kRic9-1" vertex="1">
          <mxGeometry x="1" width="20" height="20" relative="1" as="geometry">
            <mxPoint x="-27" y="7" as="offset" />
          </mxGeometry>
        </mxCell>
        <mxCell id="3jeVtCWE8oX8Z17kRic9-3" value="Request Management" style="html=1;dropTarget=0;whiteSpace=wrap;" parent="1" vertex="1">
          <mxGeometry x="400" y="180" width="180" height="90" as="geometry" />
        </mxCell>
        <mxCell id="3jeVtCWE8oX8Z17kRic9-4" value="" style="shape=module;jettyWidth=8;jettyHeight=4;" parent="3jeVtCWE8oX8Z17kRic9-3" vertex="1">
          <mxGeometry x="1" width="20" height="20" relative="1" as="geometry">
            <mxPoint x="-27" y="7" as="offset" />
          </mxGeometry>
        </mxCell>
        <mxCell id="3jeVtCWE8oX8Z17kRic9-5" value="Response&amp;nbsp;&lt;div&gt;Management&lt;/div&gt;" style="html=1;dropTarget=0;whiteSpace=wrap;" parent="1" vertex="1">
          <mxGeometry x="740" y="180" width="180" height="90" as="geometry" />
        </mxCell>
        <mxCell id="3jeVtCWE8oX8Z17kRic9-6" value="" style="shape=module;jettyWidth=8;jettyHeight=4;" parent="3jeVtCWE8oX8Z17kRic9-5" vertex="1">
          <mxGeometry x="1" width="20" height="20" relative="1" as="geometry">
            <mxPoint x="-27" y="7" as="offset" />
          </mxGeometry>
        </mxCell>
        <mxCell id="3jeVtCWE8oX8Z17kRic9-9" value="Database" style="html=1;dropTarget=0;whiteSpace=wrap;" parent="1" vertex="1">
          <mxGeometry x="400" y="420" width="180" height="90" as="geometry" />
        </mxCell>
        <mxCell id="3jeVtCWE8oX8Z17kRic9-10" value="" style="shape=module;jettyWidth=8;jettyHeight=4;" parent="3jeVtCWE8oX8Z17kRic9-9" vertex="1">
          <mxGeometry x="1" width="20" height="20" relative="1" as="geometry">
            <mxPoint x="-27" y="7" as="offset" />
          </mxGeometry>
        </mxCell>
        <mxCell id="3jeVtCWE8oX8Z17kRic9-11" value="" style="rounded=0;orthogonalLoop=1;jettySize=auto;html=1;endArrow=halfCircle;endFill=0;endSize=6;strokeWidth=1;sketch=0;exitX=1;exitY=0.5;exitDx=0;exitDy=0;" parent="1" source="3jeVtCWE8oX8Z17kRic9-1" edge="1">
          <mxGeometry relative="1" as="geometry">
            <mxPoint x="480" y="335" as="sourcePoint" />
            <mxPoint x="330" y="225" as="targetPoint" />
          </mxGeometry>
        </mxCell>
        <mxCell id="3jeVtCWE8oX8Z17kRic9-12" value="request/donate" style="rounded=0;orthogonalLoop=1;jettySize=auto;html=1;endArrow=oval;endFill=0;sketch=0;sourcePerimeterSpacing=0;targetPerimeterSpacing=0;endSize=10;exitX=0;exitY=0.5;exitDx=0;exitDy=0;" parent="1" source="3jeVtCWE8oX8Z17kRic9-3" edge="1">
          <mxGeometry x="1" y="-15" relative="1" as="geometry">
            <mxPoint x="440" y="335" as="sourcePoint" />
            <mxPoint x="330" y="225" as="targetPoint" />
            <mxPoint as="offset" />
          </mxGeometry>
        </mxCell>
        <mxCell id="3jeVtCWE8oX8Z17kRic9-13" value="" style="ellipse;whiteSpace=wrap;html=1;align=center;aspect=fixed;fillColor=none;strokeColor=none;resizable=0;perimeter=centerPerimeter;rotatable=0;allowArrows=0;points=[];outlineConnect=1;" parent="1" vertex="1">
          <mxGeometry x="455" y="330" width="10" height="10" as="geometry" />
        </mxCell>
        <mxCell id="3jeVtCWE8oX8Z17kRic9-14" value="storing and&amp;nbsp;&lt;div&gt;retrieving data&lt;/div&gt;" style="rounded=0;orthogonalLoop=1;jettySize=auto;html=1;endArrow=oval;endFill=0;sketch=0;sourcePerimeterSpacing=0;targetPerimeterSpacing=0;endSize=10;exitX=1;exitY=0.5;exitDx=0;exitDy=0;" parent="1" source="3jeVtCWE8oX8Z17kRic9-3" edge="1">
          <mxGeometry x="0.9969" y="-25" relative="1" as="geometry">
            <mxPoint x="740" y="224.5" as="sourcePoint" />
            <mxPoint x="670" y="224.5" as="targetPoint" />
            <mxPoint y="1" as="offset" />
          </mxGeometry>
        </mxCell>
        <mxCell id="3jeVtCWE8oX8Z17kRic9-15" value="" style="rounded=0;orthogonalLoop=1;jettySize=auto;html=1;endArrow=halfCircle;endFill=0;endSize=6;strokeWidth=1;sketch=0;exitX=0;exitY=0.5;exitDx=0;exitDy=0;" parent="1" source="3jeVtCWE8oX8Z17kRic9-5" edge="1">
          <mxGeometry relative="1" as="geometry">
            <mxPoint x="580" y="210" as="sourcePoint" />
            <mxPoint x="670" y="225" as="targetPoint" />
          </mxGeometry>
        </mxCell>
        <mxCell id="3jeVtCWE8oX8Z17kRic9-16" value="Store&amp;nbsp;&lt;div&gt;data&lt;/div&gt;" style="rounded=0;orthogonalLoop=1;jettySize=auto;html=1;endArrow=oval;endFill=0;sketch=0;sourcePerimeterSpacing=0;targetPerimeterSpacing=0;endSize=10;exitX=0.5;exitY=0;exitDx=0;exitDy=0;" parent="1" source="3jeVtCWE8oX8Z17kRic9-9" edge="1">
          <mxGeometry x="1" y="-32" relative="1" as="geometry">
            <mxPoint x="530" y="270" as="sourcePoint" />
            <mxPoint x="490" y="350" as="targetPoint" />
            <mxPoint x="2" y="10" as="offset" />
          </mxGeometry>
        </mxCell>
        <mxCell id="3jeVtCWE8oX8Z17kRic9-17" value="" style="rounded=0;orthogonalLoop=1;jettySize=auto;html=1;endArrow=halfCircle;endFill=0;endSize=6;strokeWidth=1;sketch=0;exitX=0.5;exitY=1;exitDx=0;exitDy=0;" parent="1" source="3jeVtCWE8oX8Z17kRic9-3" edge="1">
          <mxGeometry relative="1" as="geometry">
            <mxPoint x="390" y="380" as="sourcePoint" />
            <mxPoint x="490" y="350" as="targetPoint" />
          </mxGeometry>
        </mxCell>
        <mxCell id="TFU_T7MmVNOrq4oU7fok-1" value="Admin" style="html=1;dropTarget=0;whiteSpace=wrap;" vertex="1" parent="1">
          <mxGeometry x="50" y="470" width="180" height="90" as="geometry" />
        </mxCell>
        <mxCell id="TFU_T7MmVNOrq4oU7fok-2" value="" style="shape=module;jettyWidth=8;jettyHeight=4;" vertex="1" parent="TFU_T7MmVNOrq4oU7fok-1">
          <mxGeometry x="1" width="20" height="20" relative="1" as="geometry">
            <mxPoint x="-27" y="7" as="offset" />
          </mxGeometry>
        </mxCell>
        <mxCell id="TFU_T7MmVNOrq4oU7fok-3" value="" style="rounded=0;orthogonalLoop=1;jettySize=auto;html=1;endArrow=halfCircle;endFill=0;endSize=6;strokeWidth=1;sketch=0;exitX=0.5;exitY=1;exitDx=0;exitDy=0;" edge="1" parent="1" source="3jeVtCWE8oX8Z17kRic9-1">
          <mxGeometry relative="1" as="geometry">
            <mxPoint x="360" y="330" as="sourcePoint" />
            <mxPoint x="140" y="360" as="targetPoint" />
          </mxGeometry>
        </mxCell>
        <mxCell id="TFU_T7MmVNOrq4oU7fok-4" value="Store&amp;nbsp;&lt;div&gt;data&lt;/div&gt;" style="rounded=0;orthogonalLoop=1;jettySize=auto;html=1;endArrow=oval;endFill=0;sketch=0;sourcePerimeterSpacing=0;targetPerimeterSpacing=0;endSize=10;exitX=0.504;exitY=0.029;exitDx=0;exitDy=0;exitPerimeter=0;" edge="1" parent="1" source="TFU_T7MmVNOrq4oU7fok-1">
          <mxGeometry x="1" y="-32" relative="1" as="geometry">
            <mxPoint x="310" y="370" as="sourcePoint" />
            <mxPoint x="140" y="360" as="targetPoint" />
            <mxPoint x="2" y="10" as="offset" />
            <Array as="points">
              <mxPoint x="140" y="460" />
            </Array>
          </mxGeometry>
        </mxCell>
        <mxCell id="TFU_T7MmVNOrq4oU7fok-5" value="Store&amp;nbsp;&lt;div&gt;data&lt;/div&gt;" style="rounded=0;orthogonalLoop=1;jettySize=auto;html=1;endArrow=oval;endFill=0;sketch=0;sourcePerimeterSpacing=0;targetPerimeterSpacing=0;endSize=10;exitX=0;exitY=0.5;exitDx=0;exitDy=0;" edge="1" parent="1" source="3jeVtCWE8oX8Z17kRic9-9">
          <mxGeometry x="1" y="-32" relative="1" as="geometry">
            <mxPoint x="370" y="410" as="sourcePoint" />
            <mxPoint x="330" y="500" as="targetPoint" />
            <mxPoint x="2" y="10" as="offset" />
          </mxGeometry>
        </mxCell>
        <mxCell id="TFU_T7MmVNOrq4oU7fok-6" value="" style="rounded=0;orthogonalLoop=1;jettySize=auto;html=1;endArrow=halfCircle;endFill=0;endSize=6;strokeWidth=1;sketch=0;exitX=1.001;exitY=0.699;exitDx=0;exitDy=0;exitPerimeter=0;" edge="1" parent="1" source="TFU_T7MmVNOrq4oU7fok-1">
          <mxGeometry relative="1" as="geometry">
            <mxPoint x="360" y="320" as="sourcePoint" />
            <mxPoint x="330" y="500" as="targetPoint" />
          </mxGeometry>
        </mxCell>
      </root>
    </mxGraphModel>
  </diagram>
</mxfile>
